#N canvas 61 22 1024 715 10;
#X obj 34 49 inlet;
#X text 10 17 base key (midi note);
#X text 277 207 Dorian;
#X text 178 229 Ionian/major;
#X text 330 236 Phrygian;
#X text 446 204 Lydian;
#X text 602 201 Mixolydian;
#X text 722 201 Aeolian;
#X text 503 238 Locrian;
#X obj 103 455 + 2;
#X obj 182 474 + 2;
#X obj 264 493 + 2;
#X obj 349 494 + 1;
#X obj 427 498 + 2;
#X obj 493 492 + 2;
#X text 608 242 pentatonic;
#X text 732 245 pentatonic minor;
#X text 649 287 in sen;
#X obj 280 138 symbol \$1;
#X obj 282 -7 loadbang;
#X obj 234 16 inlet;
#X obj 756 166 print ***d-modesBADMODE***;
#X obj 571 513 + 2;
#X obj 121 339 unpack f f f f f f f;
#X msg 197 246 2 2 1 2 2 2 1;
#X msg 272 221 2 1 2 2 2 1 2;
#X msg 325 248 1 2 2 2 1 2 2;
#X msg 432 219 2 2 2 1 2 2 1;
#X msg 607 217 2 2 1 2 2 1 2;
#X msg 724 217 2 1 2 2 1 2 2;
#X msg 507 255 1 2 2 1 2 2 2;
#X msg 612 259 2 2 3 2 3 2 2;
#X msg 735 261 2 1 4 2 3 2 1;
#X msg 647 303 1 3 2 3 2 1 3;
#X obj 58 497 random 100;
#X obj 40 561 +;
#X obj 58 525 * 0.001;
#X obj 40 589 outlet;
#X obj 200 522 random 100;
#X obj 182 586 +;
#X obj 200 550 * 0.001;
#X obj 182 614 outlet;
#X obj 282 525 random 100;
#X obj 264 589 +;
#X obj 282 553 * 0.001;
#X obj 264 617 outlet;
#X obj 367 519 random 100;
#X obj 349 583 +;
#X obj 367 547 * 0.001;
#X obj 349 611 outlet;
#X obj 445 527 random 100;
#X obj 427 591 +;
#X obj 445 555 * 0.001;
#X obj 427 619 outlet;
#X obj 511 547 random 100;
#X obj 493 599 +;
#X obj 511 575 * 0.001;
#X obj 493 627 outlet;
#X obj 589 538 random 100;
#X obj 571 602 +;
#X obj 589 566 * 0.001;
#X obj 571 630 outlet;
#X obj 120 532 random 100;
#X obj 102 596 +;
#X obj 120 560 * 0.001;
#X obj 102 624 outlet;
#X obj 40 231 f \$2;
#X obj 759 689 outlet;
#X obj 686 663 f;
#X obj 716 663 f;
#X obj 747 664 f;
#X obj 777 664 f;
#X obj 805 665 f;
#X obj 836 665 f;
#X obj 866 665 f;
#X obj 896 665 f;
#X obj 719 398 sel 1 2 3 4 5 6 7 8;
#X obj 719 57 inlet;
#X obj 719 374 f 0;
#X obj 234 84 t b b a;
#X obj 34 124 route detune;
#X obj 175 170 bang;
#X obj 34 154 t b a;
#X text 70 403 detune;
#X text 26 215 midi note;
#X text 233 -2 mode;
#X text 5 29 / detune control;
#X text 430 12 right inlet: send in a number 1-8 \, right outlet gets
that;
#X text 520 25 degree of the scale in current mode as a MIDI note;
#X obj 280 158 select ionian dorian phrygian lydian mixolydian aeolian
locrian pentatonic pentatonic_altered in_sen major minor;
#X obj 282 15 t b b;
#X obj 41 192 d-default \$2 52;
#X obj 66 422 d-default \$3 0.001;
#X text 430 68 \$2: midi base note (default 62);
#X text 354 57 arguments: \$1: mode (default ionian);
#X text 430 80 \$3: detune multiplier (default 0.001);
#X obj 234 54 symbol \$1;
#X connect 0 0 80 0;
#X connect 9 0 10 0;
#X connect 9 0 63 0;
#X connect 10 0 11 0;
#X connect 10 0 39 0;
#X connect 11 0 12 0;
#X connect 11 0 43 0;
#X connect 12 0 13 0;
#X connect 12 0 47 0;
#X connect 13 0 14 0;
#X connect 13 0 51 0;
#X connect 14 0 22 0;
#X connect 14 0 55 0;
#X connect 18 0 89 0;
#X connect 19 0 90 0;
#X connect 20 0 96 0;
#X connect 22 0 59 0;
#X connect 23 0 9 1;
#X connect 23 1 10 1;
#X connect 23 2 11 1;
#X connect 23 3 12 1;
#X connect 23 4 13 1;
#X connect 23 5 14 1;
#X connect 23 6 22 1;
#X connect 24 0 23 0;
#X connect 25 0 23 0;
#X connect 26 0 23 0;
#X connect 27 0 23 0;
#X connect 28 0 23 0;
#X connect 29 0 23 0;
#X connect 30 0 23 0;
#X connect 31 0 23 0;
#X connect 32 0 23 0;
#X connect 33 0 23 0;
#X connect 34 0 36 0;
#X connect 35 0 37 0;
#X connect 35 0 68 1;
#X connect 36 0 35 1;
#X connect 38 0 40 0;
#X connect 39 0 41 0;
#X connect 39 0 70 1;
#X connect 40 0 39 1;
#X connect 42 0 44 0;
#X connect 43 0 45 0;
#X connect 43 0 71 1;
#X connect 44 0 43 1;
#X connect 46 0 48 0;
#X connect 47 0 49 0;
#X connect 47 0 72 1;
#X connect 48 0 47 1;
#X connect 50 0 52 0;
#X connect 51 0 53 0;
#X connect 51 0 73 1;
#X connect 52 0 51 1;
#X connect 54 0 56 0;
#X connect 55 0 57 0;
#X connect 55 0 74 1;
#X connect 56 0 55 1;
#X connect 58 0 60 0;
#X connect 59 0 61 0;
#X connect 59 0 75 1;
#X connect 60 0 59 1;
#X connect 62 0 64 0;
#X connect 63 0 65 0;
#X connect 63 0 69 1;
#X connect 64 0 63 1;
#X connect 66 0 9 0;
#X connect 66 0 35 0;
#X connect 68 0 67 0;
#X connect 69 0 67 0;
#X connect 70 0 67 0;
#X connect 71 0 67 0;
#X connect 72 0 67 0;
#X connect 73 0 67 0;
#X connect 74 0 67 0;
#X connect 75 0 67 0;
#X connect 76 0 68 0;
#X connect 76 1 69 0;
#X connect 76 2 70 0;
#X connect 76 3 71 0;
#X connect 76 4 72 0;
#X connect 76 5 73 0;
#X connect 76 6 74 0;
#X connect 76 7 75 0;
#X connect 77 0 78 0;
#X connect 78 0 76 0;
#X connect 79 0 78 0;
#X connect 79 1 66 0;
#X connect 79 2 18 0;
#X connect 80 0 82 0;
#X connect 80 1 66 0;
#X connect 81 0 24 0;
#X connect 81 0 34 0;
#X connect 81 0 62 0;
#X connect 81 0 38 0;
#X connect 81 0 42 0;
#X connect 81 0 46 0;
#X connect 81 0 50 0;
#X connect 81 0 54 0;
#X connect 81 0 58 0;
#X connect 82 0 81 0;
#X connect 82 1 92 0;
#X connect 89 0 24 0;
#X connect 89 1 25 0;
#X connect 89 2 26 0;
#X connect 89 3 27 0;
#X connect 89 4 28 0;
#X connect 89 5 29 0;
#X connect 89 6 30 0;
#X connect 89 7 31 0;
#X connect 89 8 32 0;
#X connect 89 9 33 0;
#X connect 89 10 24 0;
#X connect 89 11 29 0;
#X connect 89 12 21 0;
#X connect 90 0 96 0;
#X connect 90 1 81 0;
#X connect 91 0 66 0;
#X connect 92 0 60 1;
#X connect 92 0 56 1;
#X connect 92 0 52 1;
#X connect 92 0 48 1;
#X connect 92 0 44 1;
#X connect 92 0 40 1;
#X connect 92 0 64 1;
#X connect 92 0 36 1;
#X connect 96 0 79 0;
