#N canvas 80 22 1360 820 10;
#X obj 10 -229 loadbang;
#X obj 10 -207 metro 1000;
#X obj 10 -186 tgl 15 0 empty empty empty 17 7 0 10 -262144 -1 -1 0
1;
#X obj 10 -142 realtime;
#X obj 10 -119 print PD_RUNS;
#X obj 10 -165 sel 0;
#X obj 63 -165 sel 1;
#X text 374 -248 with ambience gen highlighted;
#X obj -169 -28 inlet;
#X obj -110 -54 loadbang;
#X msg -110 -29 threshold 70 \, latency 0.8;
#X obj -169 29 u_dispatch \$0 threshold;
#X obj -169 50 u_dispatch \$0 latency;
#X obj -111 0 u_loader a_breath-\$1 \$0;
#N canvas 172 83 586 377 LICENSE-GPL 0;
#X text 57 88 This program is free software: you can redistribute it
and/or modify it under the terms of the GNU General Public License
as published by the Free Software Foundation \, either version 3 of
the License \, or (at your option) any later version.;
#X text 58 168 This program is distributed in the hope that it will
be useful \, but WITHOUT ANY WARRANTY \; without even the implied warranty
of MERCHANTABILITY or FITNESS FOR A PARTICULAR PURPOSE. See the GNU
General Public License for more details.;
#X text 57 261 You should have received a copy of the GNU General Public
License along with this program. If not \, see <http://www.gnu.org/licenses/>.
;
#X text 61 54 Copyright (C) 2009 \, Reality Jockey Ltd.;
#X text 60 325 See the file LICENSE.txt for the full license text.
;
#X restore 513 -115 pd LICENSE-GPL;
#X obj -1306 304 noise~;
#X obj -1253 959 dac~;
#X obj -1356 -65 loadbang;
#X obj -1151 603 *~;
#X obj -1309 595 *~;
#N canvas 507 22 510 684 wave1 0;
#X obj 112 346 *~;
#X obj 132 269 bng 15 250 50 0 empty empty empty 0 -6 0 8 -262144 -1
-1;
#X obj 176 447 sig~;
#X floatatom 262 465 5 0 0 0 - - -;
#X obj 114 498 vcf~ 1;
#X obj 112 587 *~ 0.71;
#X msg 246 390 400;
#X obj 143 143 t b b;
#X msg 194 269 2600;
#X text 180 481 long;
#X msg 158 269 1200;
#X obj 196 177 random 1000;
#X obj 113 11 inlet~;
#X obj 234 38 inlet;
#X obj 111 628 outlet~;
#X obj 241 231 loadbang;
#X obj 132 306 az_vad~;
#X obj 27 104 spigot;
#X obj 113 547 *~;
#X obj 158 526 tgl 15 0 empty empty empty 0 -6 0 8 -262144 -1 -1 1
1;
#X obj 24 341 del 3800;
#X obj 196 202 + 3800;
#X obj 143 226 del 3800;
#X obj 176 418 line;
#X obj 24 268 t b b b;
#X msg 24 386 400;
#X msg 176 390 800 1200;
#X connect 0 0 4 0;
#X connect 1 0 16 0;
#X connect 1 0 17 0;
#X connect 2 0 4 1;
#X connect 4 0 18 0;
#X connect 5 0 14 0;
#X connect 6 0 23 1;
#X connect 7 0 22 0;
#X connect 7 1 11 0;
#X connect 8 0 16 2;
#X connect 10 0 16 1;
#X connect 11 0 21 0;
#X connect 12 0 0 0;
#X connect 13 0 7 0;
#X connect 13 0 17 1;
#X connect 15 0 10 0;
#X connect 15 0 8 0;
#X connect 15 0 6 0;
#X connect 16 0 0 1;
#X connect 17 0 7 0;
#X connect 18 0 5 0;
#X connect 19 0 18 1;
#X connect 20 0 19 0;
#X connect 20 0 25 0;
#X connect 21 0 22 1;
#X connect 22 0 1 0;
#X connect 22 0 24 0;
#X connect 23 0 3 0;
#X connect 23 0 2 0;
#X connect 24 0 20 0;
#X connect 24 1 19 0;
#X connect 24 2 26 0;
#X connect 25 0 23 0;
#X connect 26 0 23 0;
#X restore -1309 543 pd wave1;
#N canvas 0 132 472 679 wave3 0;
#X obj 170 325 *~;
#X obj 251 420 sig~;
#X obj 169 463 vcf~ 1;
#X obj 189 230 bng 15 250 50 0 empty empty empty 0 -6 0 8 -262144 -1
-1;
#X msg 306 390 220;
#X obj 215 105 t b b;
#X obj 274 128 random 2000;
#X msg 214 229 800;
#X msg 250 229 3500;
#X obj 189 272 az_vad~;
#X obj 168 586 hip~ 350;
#X obj 169 558 *~ 5.6;
#X obj 171 9 inlet~;
#X obj 272 44 inlet;
#X obj 167 624 outlet~;
#X obj 375 182 loadbang;
#X obj 62 86 spigot;
#X obj 169 511 *~;
#X obj 210 497 tgl 15 0 empty empty empty 0 -6 0 8 -262144 -1 -1 0
1;
#X obj 43 265 del 4300;
#X obj 215 177 del 4300;
#X obj 274 153 + 4300;
#X obj 252 386 line;
#X obj 43 228 t b b b;
#X msg 43 315 220;
#X msg 252 358 400 1600;
#X floatatom 330 472 5 0 0 0 - - -;
#X connect 0 0 2 0;
#X connect 1 0 2 1;
#X connect 2 0 17 0;
#X connect 3 0 9 0;
#X connect 3 0 16 0;
#X connect 4 0 1 0;
#X connect 5 0 20 0;
#X connect 5 1 6 0;
#X connect 6 0 21 0;
#X connect 7 0 9 1;
#X connect 8 0 9 2;
#X connect 9 0 0 1;
#X connect 10 0 14 0;
#X connect 11 0 10 0;
#X connect 12 0 0 0;
#X connect 13 0 16 1;
#X connect 13 0 3 0;
#X connect 13 0 5 0;
#X connect 15 0 7 0;
#X connect 15 0 8 0;
#X connect 15 0 4 0;
#X connect 16 0 5 0;
#X connect 17 0 11 0;
#X connect 18 0 17 1;
#X connect 19 0 18 0;
#X connect 19 0 24 0;
#X connect 20 0 23 0;
#X connect 21 0 20 1;
#X connect 22 0 1 0;
#X connect 22 0 26 0;
#X connect 23 0 19 0;
#X connect 23 1 18 0;
#X connect 23 2 25 0;
#X connect 24 0 22 0;
#X connect 25 0 22 0;
#X restore -1150 545 pd wave3;
#N canvas 0 22 503 683 wave2 0;
#X obj 148 308 *~;
#X obj 178 414 sig~;
#X obj 149 468 vcf~ 1;
#X obj 166 220 bng 15 250 50 0 empty empty empty 0 -6 0 8 -262144 -1
-1;
#X msg 266 366 295;
#X obj 221 81 t b b;
#X obj 221 158 del 3600;
#X obj 280 134 + 3600;
#X text 284 219 short burst;
#X text 224 254 replacement for ead;
#X obj 147 586 hip~ 500;
#X msg 228 218 2100;
#X obj 148 557 *~ 3.1;
#X msg 192 218 450;
#X obj 280 109 random 4000;
#X obj 149 8 inlet~;
#X obj 279 23 inlet;
#X obj 147 623 outlet~;
#X obj 415 159 loadbang;
#X obj 167 254 az_vad~;
#X obj 48 60 spigot;
#X obj 148 516 *~;
#X obj 193 495 tgl 15 0 empty empty empty 0 -6 0 8 -262144 -1 -1 0
1;
#X obj 48 307 del 2550;
#X obj 48 270 t b b b;
#X floatatom 260 444 5 0 0 0 - - -;
#X obj 178 383 line;
#X msg 48 344 295;
#X msg 178 355 1100 400;
#X connect 0 0 2 0;
#X connect 1 0 2 1;
#X connect 2 0 21 0;
#X connect 3 0 19 0;
#X connect 3 0 20 0;
#X connect 4 0 1 0;
#X connect 5 0 6 0;
#X connect 5 1 14 0;
#X connect 6 0 3 0;
#X connect 6 0 24 0;
#X connect 7 0 6 1;
#X connect 10 0 17 0;
#X connect 11 0 19 2;
#X connect 12 0 10 0;
#X connect 13 0 19 1;
#X connect 14 0 7 0;
#X connect 15 0 0 0;
#X connect 16 0 20 1;
#X connect 16 0 5 0;
#X connect 18 0 13 0;
#X connect 18 0 11 0;
#X connect 18 0 4 0;
#X connect 19 0 0 1;
#X connect 20 0 5 0;
#X connect 21 0 12 0;
#X connect 22 0 21 1;
#X connect 23 0 22 0;
#X connect 23 0 27 0;
#X connect 24 0 23 0;
#X connect 24 1 22 0;
#X connect 24 2 28 0;
#X connect 26 0 1 0;
#X connect 26 0 25 0;
#X connect 27 0 26 0;
#X connect 28 0 26 0;
#X restore -1231 543 pd wave2;
#X obj -1232 600 *~;
#X obj -1165 765 hip~ 20;
#X obj -1291 766 hip~ 20;
#X text -1353 219 Beach ambient generator. AZ 2007;
#X text -1313 209 Sea waves.;
#X obj -921 -264 a_breath;
#X obj -921 -285 adc~;
#X floatatom -921 -198 5 0 0 0 - - -;
#X obj -1291 396 osc~;
#X obj -1309 416 *~;
#X obj -1150 500 cnoise1~;
#X obj -1132 402 osc~;
#X obj -1150 423 *~;
#X obj -1118 473 line;
#X obj -1118 454 pack f 500;
#X obj -1200 24 loadbang;
#X obj -1291 375 * 80000;
#X obj -1132 381 * 70000;
#N canvas 0 22 1360 820 rainyday 0;
#X obj 226 263 osc~;
#X obj 237 59 noise~;
#X obj 226 337 *~;
#X obj 193 234 +~ 2000;
#X obj 264 262 *~;
#X obj 264 287 *~;
#X obj 226 441 *~ 0.01;
#X obj 227 463 lop~ 10000;
#X obj 238 155 bp~ 2.064 0.002;
#X obj 265 312 *~;
#X obj 225 371 *~ 0.3;
#X obj 239 178 *~ 3.2;
#X obj 226 396 hip~ 500;
#X obj 227 419 hip~ 500;
#X obj 192 210 *~ 3000;
#X obj 226 486 *~ 0.02;
#X obj 112 263 osc~;
#X obj 123 59 noise~;
#X obj 112 337 *~;
#X obj 150 262 *~;
#X obj 150 287 *~;
#X obj 112 441 *~ 0.01;
#X obj 113 463 lop~ 10000;
#X obj 124 155 bp~ 2.064 0.002;
#X obj 151 312 *~;
#X obj 111 371 *~ 0.3;
#X obj 125 178 *~ 3.2;
#X obj 112 396 hip~ 500;
#X obj 113 419 hip~ 500;
#X obj 340 262 osc~;
#X obj 351 58 noise~;
#X obj 340 336 *~;
#X obj 307 233 +~ 2000;
#X obj 378 261 *~;
#X obj 378 286 *~;
#X obj 340 440 *~ 0.01;
#X obj 341 462 lop~ 10000;
#X obj 352 154 bp~ 2.064 0.002;
#X obj 379 311 *~;
#X obj 339 370 *~ 0.3;
#X obj 340 395 hip~ 500;
#X obj 341 418 hip~ 500;
#X obj 78 210 *~ 344;
#X obj 79 234 +~ 3000;
#X obj 112 486 *~ 0.01;
#X obj 306 209 *~ 5000;
#X obj 353 177 *~ 3.8;
#X obj 340 485 *~ 0.01;
#X obj 427 201 *~;
#X obj 135 92 lop~ 16;
#X obj 427 492 *~ 1;
#X obj 499 195 /~;
#X obj 498 302 clip~ 0 0.9;
#X obj 427 287 bp~ 333 4;
#X obj 594 588 lop~ 12000;
#X obj 428 335 *~ 0.4;
#X obj 251 85 lop~ 0.01;
#X obj 498 220 hip~ 10000;
#X obj 429 87 lop~ 1900;
#X obj 499 281 *~;
#X obj 500 256 *~ 0.03;
#X text 201 3 Rain generator;
#X obj 498 413 vcf~ 3333 30;
#X obj 537 345 +~ 1000;
#X obj 136 118 *~ 300000;
#X obj 536 381 clip~ 1000 10000;
#X obj 495 440 *~ 0.7;
#X text 25 377 ambience;
#X text 433 364 rumble;
#X text 494 465 drips;
#X text 143 349 droplets;
#X text 266 349 droplets;
#X obj 594 613 *~;
#X obj 610 -50 inlet;
#X obj 594 666 outlet~;
#X obj 594 638 *~;
#X obj 684 608 / 22;
#X obj 684 629 + 0.25;
#X obj 684 588 r \$0-windrain;
#X obj 840 233 osc~;
#X obj 851 29 noise~;
#X obj 840 307 *~;
#X obj 807 204 +~ 2000;
#X obj 878 232 *~;
#X obj 878 257 *~;
#X obj 840 411 *~ 0.01;
#X obj 841 433 lop~ 10000;
#X obj 852 125 bp~ 2.064 0.002;
#X obj 879 282 *~;
#X obj 839 341 *~ 0.3;
#X obj 853 148 *~ 3.2;
#X obj 840 366 hip~ 500;
#X obj 841 389 hip~ 500;
#X obj 806 180 *~ 3000;
#X obj 840 456 *~ 0.02;
#X obj 726 233 osc~;
#X obj 737 29 noise~;
#X obj 726 307 *~;
#X obj 764 232 *~;
#X obj 764 257 *~;
#X obj 726 411 *~ 0.01;
#X obj 727 433 lop~ 10000;
#X obj 738 125 bp~ 2.064 0.002;
#X obj 765 282 *~;
#X obj 725 341 *~ 0.3;
#X obj 739 148 *~ 3.2;
#X obj 726 366 hip~ 500;
#X obj 727 389 hip~ 500;
#X obj 954 232 osc~;
#X obj 965 28 noise~;
#X obj 954 306 *~;
#X obj 921 203 +~ 2000;
#X obj 992 231 *~;
#X obj 992 256 *~;
#X obj 954 410 *~ 0.01;
#X obj 955 432 lop~ 10000;
#X obj 966 124 bp~ 2.064 0.002;
#X obj 993 281 *~;
#X obj 953 340 *~ 0.3;
#X obj 954 365 hip~ 500;
#X obj 955 388 hip~ 500;
#X obj 692 180 *~ 344;
#X obj 693 204 +~ 3000;
#X obj 726 456 *~ 0.01;
#X obj 920 179 *~ 5000;
#X obj 967 147 *~ 3.8;
#X obj 954 455 *~ 0.01;
#X obj 1041 171 *~;
#X obj 749 62 lop~ 16;
#X obj 1041 462 *~ 1;
#X obj 1113 165 /~;
#X obj 1112 272 clip~ 0 0.9;
#X obj 1041 257 bp~ 333 4;
#X obj 1042 305 *~ 0.4;
#X obj 865 55 lop~ 0.01;
#X obj 1112 190 hip~ 10000;
#X obj 1043 57 lop~ 1900;
#X obj 1113 251 *~;
#X obj 1114 226 *~ 0.03;
#X obj 1112 383 vcf~ 3333 30;
#X obj 1151 315 +~ 1000;
#X obj 750 88 *~ 300000;
#X obj 1150 351 clip~ 1000 10000;
#X obj 1109 410 *~ 0.7;
#X text 1047 334 rumble;
#X text 1108 435 drips;
#X text 757 319 droplets;
#X text 880 319 droplets;
#X obj 889 586 *~;
#X obj 1234 411 hsl 128 15 0 4 0 0 empty empty empty -2 -8 0 10 -262144
-1 -1 0 1;
#X floatatom 1231 436 8 0 0 0 - - -;
#X floatatom 1231 578 8 0 0 0 - - -;
#X floatatom 1231 627 5 0 0 0 - - -;
#X obj 1241 -44 inlet;
#X obj 1231 602 / 50000;
#X obj 1345 166 noise~;
#X obj 1392 227 noise~;
#X obj 1377 261 *~;
#X obj 1377 310 bp~ 333 4;
#X obj 1345 188 lop~ 3;
#X obj 1377 284 clip~ -1 1;
#X obj 1397 114 line;
#X obj 1397 158 + 3;
#X obj 1397 137 * 30;
#X obj 1345 211 *~ 80;
#X obj 1462 116 line;
#X obj 1377 334 *~;
#X msg 1397 92 1 \, 0 600;
#X msg 1462 92 1 \, 0 6000;
#X obj 1424 -2 inlet;
#X obj 579 414 loadbang;
#X msg 579 438 20;
#X obj 1231 458 moses 0;
#X obj 1231 483 * -1;
#X obj 1231 504 * 100;
#X obj 1231 525 dbtorms;
#X obj 1231 546 * -1;
#X obj 1285 507 * 100;
#X obj 1285 527 dbtorms;
#X obj 1376 356 *~ 2;
#X connect 0 0 2 0;
#X connect 1 0 8 0;
#X connect 1 0 56 0;
#X connect 2 0 10 0;
#X connect 3 0 0 0;
#X connect 4 0 5 0;
#X connect 4 0 5 1;
#X connect 5 0 9 0;
#X connect 5 0 9 1;
#X connect 6 0 7 0;
#X connect 7 0 15 0;
#X connect 8 0 11 0;
#X connect 9 0 2 1;
#X connect 10 0 12 0;
#X connect 11 0 4 0;
#X connect 11 0 4 1;
#X connect 11 0 14 0;
#X connect 12 0 13 0;
#X connect 13 0 6 0;
#X connect 14 0 3 0;
#X connect 15 0 54 0;
#X connect 16 0 18 0;
#X connect 17 0 23 0;
#X connect 17 0 49 0;
#X connect 18 0 25 0;
#X connect 19 0 20 0;
#X connect 19 0 20 1;
#X connect 20 0 24 0;
#X connect 20 0 24 1;
#X connect 21 0 22 0;
#X connect 22 0 44 0;
#X connect 23 0 26 0;
#X connect 24 0 18 1;
#X connect 25 0 27 0;
#X connect 26 0 19 0;
#X connect 26 0 19 1;
#X connect 26 0 42 0;
#X connect 27 0 28 0;
#X connect 28 0 21 0;
#X connect 29 0 31 0;
#X connect 30 0 37 0;
#X connect 30 0 48 1;
#X connect 30 0 58 0;
#X connect 31 0 39 0;
#X connect 32 0 29 0;
#X connect 33 0 34 0;
#X connect 33 0 34 1;
#X connect 34 0 38 0;
#X connect 34 0 38 1;
#X connect 35 0 36 0;
#X connect 36 0 47 0;
#X connect 37 0 46 0;
#X connect 38 0 31 1;
#X connect 39 0 40 0;
#X connect 40 0 41 0;
#X connect 41 0 35 0;
#X connect 42 0 43 0;
#X connect 43 0 16 0;
#X connect 44 0 54 0;
#X connect 45 0 32 0;
#X connect 46 0 33 0;
#X connect 46 0 33 1;
#X connect 46 0 45 0;
#X connect 47 0 54 0;
#X connect 48 0 53 0;
#X connect 49 0 48 0;
#X connect 49 0 64 0;
#X connect 50 0 54 0;
#X connect 51 0 57 0;
#X connect 52 0 62 0;
#X connect 53 0 55 0;
#X connect 54 0 72 0;
#X connect 55 0 50 0;
#X connect 56 0 51 0;
#X connect 57 0 60 0;
#X connect 58 0 51 1;
#X connect 59 0 52 0;
#X connect 60 0 59 0;
#X connect 60 0 59 1;
#X connect 62 0 66 0;
#X connect 63 0 65 0;
#X connect 64 0 63 0;
#X connect 65 0 62 1;
#X connect 66 0 54 0;
#X connect 72 0 75 0;
#X connect 73 0 72 1;
#X connect 75 0 74 0;
#X connect 76 0 77 0;
#X connect 77 0 75 1;
#X connect 78 0 76 0;
#X connect 79 0 81 0;
#X connect 80 0 87 0;
#X connect 80 0 134 0;
#X connect 81 0 89 0;
#X connect 82 0 79 0;
#X connect 83 0 84 0;
#X connect 83 0 84 1;
#X connect 84 0 88 0;
#X connect 84 0 88 1;
#X connect 85 0 86 0;
#X connect 86 0 94 0;
#X connect 87 0 90 0;
#X connect 88 0 81 1;
#X connect 89 0 91 0;
#X connect 90 0 83 0;
#X connect 90 0 83 1;
#X connect 90 0 93 0;
#X connect 91 0 92 0;
#X connect 92 0 85 0;
#X connect 93 0 82 0;
#X connect 94 0 148 0;
#X connect 95 0 97 0;
#X connect 96 0 102 0;
#X connect 96 0 128 0;
#X connect 97 0 104 0;
#X connect 98 0 99 0;
#X connect 98 0 99 1;
#X connect 99 0 103 0;
#X connect 99 0 103 1;
#X connect 100 0 101 0;
#X connect 101 0 123 0;
#X connect 102 0 105 0;
#X connect 103 0 97 1;
#X connect 104 0 106 0;
#X connect 105 0 98 0;
#X connect 105 0 98 1;
#X connect 105 0 121 0;
#X connect 106 0 107 0;
#X connect 107 0 100 0;
#X connect 108 0 110 0;
#X connect 109 0 116 0;
#X connect 109 0 127 1;
#X connect 109 0 136 0;
#X connect 110 0 118 0;
#X connect 111 0 108 0;
#X connect 112 0 113 0;
#X connect 112 0 113 1;
#X connect 113 0 117 0;
#X connect 113 0 117 1;
#X connect 114 0 115 0;
#X connect 115 0 126 0;
#X connect 116 0 125 0;
#X connect 117 0 110 1;
#X connect 118 0 119 0;
#X connect 119 0 120 0;
#X connect 120 0 114 0;
#X connect 121 0 122 0;
#X connect 122 0 95 0;
#X connect 123 0 148 0;
#X connect 124 0 111 0;
#X connect 125 0 112 0;
#X connect 125 0 112 1;
#X connect 125 0 124 0;
#X connect 126 0 148 0;
#X connect 127 0 132 0;
#X connect 128 0 127 0;
#X connect 128 0 141 0;
#X connect 129 0 148 0;
#X connect 130 0 135 0;
#X connect 131 0 139 0;
#X connect 132 0 133 0;
#X connect 133 0 129 0;
#X connect 134 0 130 0;
#X connect 135 0 138 0;
#X connect 136 0 130 1;
#X connect 137 0 131 0;
#X connect 138 0 137 0;
#X connect 138 0 137 1;
#X connect 139 0 143 0;
#X connect 140 0 142 0;
#X connect 141 0 140 0;
#X connect 142 0 139 1;
#X connect 143 0 148 0;
#X connect 148 0 54 0;
#X connect 149 0 150 0;
#X connect 150 0 172 0;
#X connect 151 0 154 0;
#X connect 152 0 148 1;
#X connect 153 0 149 0;
#X connect 154 0 152 0;
#X connect 155 0 159 0;
#X connect 156 0 157 1;
#X connect 157 0 160 0;
#X connect 158 0 166 0;
#X connect 159 0 164 0;
#X connect 160 0 158 0;
#X connect 161 0 163 0;
#X connect 162 0 159 1;
#X connect 163 0 162 0;
#X connect 164 0 157 0;
#X connect 165 0 166 1;
#X connect 166 0 179 0;
#X connect 167 0 161 0;
#X connect 168 0 165 0;
#X connect 169 0 167 0;
#X connect 169 0 168 0;
#X connect 170 0 171 0;
#X connect 171 0 62 2;
#X connect 172 0 173 0;
#X connect 172 1 177 0;
#X connect 173 0 174 0;
#X connect 174 0 175 0;
#X connect 175 0 176 0;
#X connect 176 0 151 0;
#X connect 177 0 178 0;
#X connect 178 0 151 0;
#X connect 179 0 74 0;
#X restore -998 669 pd rainyday;
#X obj -998 646 line;
#X obj -998 564 r rain;
#N canvas 87 140 512 467 windymiller 0;
#X obj 66 316 vcf~ 600 23;
#X obj 160 317 vcf~ 600 23;
#X obj 66 381 *~;
#X obj 26 175 lop~ 1;
#X obj 97 175 lop~ 0.1;
#X obj 199 174 lop~ 0.19;
#X obj 97 264 +~;
#X obj 191 15 osc~ 0.03;
#X obj 199 263 +~;
#X obj 214 42 +~;
#X obj 256 16 osc~ 0.3;
#X obj 66 402 bp~ 1000 7;
#X obj 66 442 outlet~;
#X obj 138 381 env~;
#X obj 138 358 +~;
#X obj 138 402 - 150;
#X obj 138 424 clip 0 20;
#X msg 227 295 20;
#X obj 26 198 *~;
#X obj 369 11 inlet;
#X text 362 -5 control;
#X obj 97 98 *~;
#X obj 97 57 noise~;
#X obj 134 274 loadbang;
#X obj 138 446 s \$0-windrain;
#X obj 66 358 *~ 0.15;
#X msg 134 295 14;
#X obj 214 85 *~ 300;
#X obj 199 195 *~ 180000;
#X obj 97 196 *~ 100000;
#X obj 214 63 *~ 0.25;
#X obj 26 218 *~ 1000;
#X obj 214 107 +~ 100;
#X obj 199 215 clip~ 300 1000;
#X obj 97 216 clip~ 250 1000;
#X obj 372 36 hsl 128 15 0 127 0 0 empty empty empty -2 -8 0 10 -262144
-1 -1 100 1;
#X floatatom 375 57 5 0 0 0 - - -;
#X obj 26 238 +~ 0.65;
#X connect 0 0 25 0;
#X connect 1 0 25 0;
#X connect 2 0 11 0;
#X connect 3 0 18 0;
#X connect 3 0 18 1;
#X connect 4 0 29 0;
#X connect 5 0 28 0;
#X connect 6 0 0 1;
#X connect 6 0 14 0;
#X connect 7 0 9 0;
#X connect 8 0 1 1;
#X connect 8 0 14 1;
#X connect 9 0 30 0;
#X connect 10 0 9 1;
#X connect 11 0 12 0;
#X connect 13 0 15 0;
#X connect 14 0 13 0;
#X connect 15 0 16 0;
#X connect 16 0 24 0;
#X connect 17 0 1 2;
#X connect 18 0 31 0;
#X connect 19 0 35 0;
#X connect 21 0 0 0;
#X connect 21 0 1 0;
#X connect 21 0 3 0;
#X connect 21 0 4 0;
#X connect 21 0 5 0;
#X connect 22 0 21 0;
#X connect 23 0 17 0;
#X connect 23 0 26 0;
#X connect 25 0 2 0;
#X connect 26 0 0 2;
#X connect 27 0 32 0;
#X connect 28 0 33 0;
#X connect 29 0 34 0;
#X connect 30 0 27 0;
#X connect 31 0 37 0;
#X connect 32 0 6 1;
#X connect 32 0 8 1;
#X connect 33 0 8 0;
#X connect 34 0 6 0;
#X connect 35 0 21 1;
#X connect 35 0 36 0;
#X connect 37 0 2 1;
#X restore -995 513 pd windymiller;
#X obj -995 488 line;
#X obj -995 441 r windy;
#N canvas 87 298 709 298 weatherman 0;
#X obj 308 50 f 0;
#X obj 345 50 + 1;
#X obj 219 177 s thunder;
#X obj 173 176 s rain;
#X obj 352 171 s stream;
#X obj 407 171 s river;
#X obj 308 96 sel 0 10 30 55 75 99;
#X obj 308 -15 loadbang;
#X msg 308 6 1;
#X obj 456 172 s bubbles;
#X obj 300 172 s windy;
#X obj 307 27 metro 1600;
#X obj 208 -12 adc~;
#X floatatom 321 74 5 0 0 0 - - -;
#X msg 371 2 0;
#X obj 277 82 bng 15 250 50 0 empty empty empty 17 7 0 10 -262144 -1
-1;
#X obj 265 58 sel 1;
#X obj 227 60 int;
#X obj 226 33 + 0.0001;
#X floatatom 216 87 5 0 0 0 - - -;
#X obj 209 10 a_breath;
#X obj 375 50 % 100;
#X connect 0 0 1 0;
#X connect 0 0 6 0;
#X connect 0 0 13 0;
#X connect 1 0 21 0;
#X connect 6 0 3 0;
#X connect 6 1 10 0;
#X connect 6 2 4 0;
#X connect 6 3 5 0;
#X connect 6 4 9 0;
#X connect 7 0 8 0;
#X connect 8 0 11 0;
#X connect 11 0 0 0;
#X connect 12 0 20 0;
#X connect 14 0 11 0;
#X connect 15 0 2 0;
#X connect 16 0 15 0;
#X connect 17 0 16 0;
#X connect 17 0 19 0;
#X connect 18 0 17 0;
#X connect 20 0 18 0;
#X connect 21 0 0 1;
#X restore -996 422 pd weatherman;
#X msg -995 465 1 30000;
#X obj -876 76 sel 1;
#X obj -876 100 bng 15 250 50 0 empty empty empty 17 7 0 10 -262144
-1 -1;
#X obj -874 29 int;
#X floatatom -876 55 5 0 0 0 - - -;
#X floatatom -921 296 5 0 0 0 - - -;
#X obj -922 102 bng 15 250 50 0 empty empty empty 17 7 0 10 -262144
-1 -1;
#X obj -922 30 int;
#X floatatom -922 54 5 0 0 0 - - -;
#X obj -1011 347 line;
#X msg -869 344 2 8000;
#X obj -917 650 bng 15 250 50 0 empty empty empty 17 7 0 10 -262144
-1 -1;
#X text -367 -131 water \, waves \, rain \, increased rain \, rumbling
of thunder \, lightning \, screaming wind \,;
#X text -876 298 thunder rumble;
#X obj -1206 581 line;
#X msg -768 366 0 2000;
#X obj -768 344 sel 15;
#X obj -921 271 f;
#X obj -892 271 + 1;
#X obj -921 142 route bang;
#X obj -864 166 t a b;
#X obj -921 167 t b b;
#X obj -816 164 f 1;
#X obj -831 193 f 1;
#X obj -921 218 spigot;
#X obj -921 243 t b b;
#X obj -864 218 spigot;
#X obj -864 242 t a b;
#X obj -815 242 f 0;
#X obj -349 9 int;
#X floatatom -349 34 5 0 0 0 - - -;
#X obj -349 -13 * 100;
#X obj -349 55 sel 0;
#X obj -349 316 metro 500;
#X msg -349 289 1;
#X obj -349 343 f;
#X obj -319 342 + 0.5;
#X floatatom -349 370 5 0 0 0 - - -;
#X msg -315 289 0;
#X obj -284 189 spigot;
#X obj -282 137 t a b;
#X obj -240 158 f 1;
#X obj -284 221 t a b;
#X obj -257 255 f 0;
#X obj -222 113 bang;
#X obj -222 136 f 1;
#X obj -349 108 route bang;
#X obj -349 138 t b b;
#X obj -349 189 spigot;
#X obj -349 221 t b b;
#X obj -349 260 bng 15 250 50 0 empty empty empty 17 7 0 10 -262144
-1 -1;
#X obj -222 88 bng 15 250 50 0 empty empty empty 17 7 0 10 -262144
-1 -1;
#X obj -349 84 bng 15 250 50 0 empty empty empty 17 7 0 10 -262144
-1 -1;
#X obj -349 424 tgl 15 0 empty empty empty 17 7 0 10 -262144 -1 -1
1 1;
#X obj -349 397 sel 30;
#X obj -1206 560 pack f 1000;
#X obj -1011 325 pack f 500;
#X obj -731 65 bng 15 250 50 0 empty empty empty 17 7 0 10 -262144
-1 -1;
#X obj -671 63 bng 15 250 50 0 empty empty empty 17 7 0 10 -232576
-1 -1;
#X obj -731 84 f;
#X obj -704 84 + 1;
#X floatatom -731 108 5 0 0 0 - - -;
#X msg -712 366 0 2000;
#X msg -659 343 0;
#X obj -712 343 sel 18;
#X text -922 547 webaudio api;
#X obj -731 132 sel 500;
#X msg -671 159 0;
#X msg -731 181 0.75 5000;
#X msg -986 626 0.25 1000;
#X obj -986 606 loadbang;
#X obj -1239 840 *~ 0.3;
#X obj -922 78 sel 9;
#X msg -921 345 2 8000;
#X obj -921 323 sel 1;
#X obj -1113 79 metro 33;
#X obj -1113 61 tgl 15 0 empty empty empty 17 7 0 10 -262144 -1 -1
0 1;
#X obj -1113 99 f;
#X obj -1083 99 + 1;
#X floatatom -1113 120 5 0 0 0 - - -;
#X obj -1113 19 sel 1;
#X msg -1113 41 1;
#X obj -1071 19 sel 2;
#X msg -1072 43 0;
#X floatatom -1113 161 5 0 0 0 - - -;
#X obj -1113 139 expr 1000 / $f1 / 3 * 60;
#X obj -1043 162 bng 15 250 50 0 empty empty empty 17 7 0 10 -232576
-1 -1;
#X msg -1113 185 set send /breath/bpm \$1;
#X msg -1113 211 send /breath/bpm 80.9717;
#X msg -710 226 send /breath/isHeld 1;
#X msg -662 132 send /breath/isHeld 0;
#X obj -710 203 bng 15 250 50 0 empty empty empty 17 7 0 10 -232576
-1 -1;
#X obj -1238 863 lop~ 4000;
#X obj -1291 789 lop~ 6000;
#X obj -869 322 sel 4;
#X obj 0 925 dac~;
#X obj -40 411 hip~ 20;
#X obj -168 410 hip~ 20;
#X obj -1309 657 panner1;
#X obj -1233 658 panner1;
#X obj -1152 660 panner1;
#X obj -921 -221 clip 0 8;
#X floatatom -921 -239 5 0 0 0 - - -;
#X obj -1356 -122 loadbang;
#X msg -1356 -99 \; pd dsp 1;
#X obj -731 40 moses 0.5;
#X obj -921 7 * 250;
#X obj -876 8 + 0.17;
#X obj -979 705 loadbang;
#X obj -979 766 pack f 4000;
#X msg -979 745 4000;
#X obj -979 787 line;
#X floatatom -979 807 5 0 0 0 - - -;
#X obj -890 766 pack f 4000;
#X obj -890 788 line;
#X floatatom -890 808 5 0 0 0 - - -;
#X msg -890 746 6000;
#X obj -798 765 pack f 4000;
#X obj -798 787 line;
#X floatatom -798 809 5 0 0 0 - - -;
#X msg -798 744 20;
#X obj -714 765 pack f 4000;
#X obj -714 786 line;
#X floatatom -714 806 5 0 0 0 - - -;
#X msg -714 743 80000;
#X obj -631 765 pack f 4000;
#X obj -631 786 line;
#X floatatom -631 806 5 0 0 0 - - -;
#X msg -631 743 70000;
#X obj -168 451 *~ 0.4;
#X obj -40 449 *~ 0.4;
#X floatatom -815 342 5 0 0 0 - - -;
#X obj -815 359 sel 2;
#X obj -768 322 mod 16;
#X obj -712 322 mod 19;
#N canvas 109 383 506 356 compress 0;
#X obj 129 23 inlet~;
#X obj 110 276 outlet~;
#X obj 338 253 outlet~;
#X obj 326 28 inlet~;
#X obj 145 148 /;
#X obj 217 31 block~ 64;
#X obj 131 209 d-smooth~;
#X msg 144 128 0.5 \$1;
#X obj 146 84 env~;
#X obj 145 108 dbtorms;
#X obj 109 233 *~ 1;
#X obj 326 70 +~ 0;
#X obj 129 58 +~ 0;
#X obj 406 160 /;
#X obj 397 184 d-smooth~;
#X msg 403 138 0.5 \$1;
#X obj 403 118 dbtorms;
#X obj 404 95 env~;
#X obj 215 159 delwrite~ \$0-compdelr 100;
#X obj -19 181 delread~ \$0-compdell 3;
#X obj -15 153 delwrite~ \$0-compdell 100;
#X obj 213 182 delread~ \$0-compdelr 3;
#X obj 326 208 *~ 1;
#X connect 0 0 12 0;
#X connect 3 0 11 0;
#X connect 4 0 6 0;
#X connect 7 0 4 0;
#X connect 8 0 9 0;
#X connect 9 0 7 0;
#X connect 10 0 1 0;
#X connect 11 0 17 0;
#X connect 11 0 18 0;
#X connect 12 0 8 0;
#X connect 12 0 20 0;
#X connect 13 0 14 0;
#X connect 15 0 13 0;
#X connect 16 0 15 0;
#X connect 17 0 16 0;
#X connect 19 0 10 0;
#X connect 21 0 22 0;
#X connect 22 0 2 0;
#X restore 90 789 pd compress;
#X msg 295 257 0.0001;
#X obj 152 332 osc~;
#X obj 198 285 phasor~;
#X obj 211 482 vline~;
#X obj 192 536 *~;
#X obj 198 209 loadbang;
#X obj 198 254 mtof;
#X obj 198 331 *~ 0.5;
#X obj 152 310 * 2;
#X msg 309 319 bang;
#X msg 198 231 24;
#X obj 311 388 delay 4000;
#X obj 309 352 metro 6000;
#X obj 198 307 lop~ 50;
#X obj 396 425 tr808-bd~;
#X msg 396 397 trigger;
#X msg 211 450 0.8 2 \, 1 1 2 \, 0.8 30 60 \, 0.7 200 190 \, 0.5 600
390 \, 0.15 1000 990 \, 0 1200 2990;
#X obj 396 371 delay 3050;
#X obj 266 257 f 1;
#X obj 266 211 loadbang;
#X obj 309 282 loadbang;
#X obj 280 542 line~;
#X obj 280 488 loadbang;
#X obj 192 613 *~;
#X obj 192 567 *~ 0.5;
#X msg 280 510 0 \, 1 20000;
#X msg 266 231 0.004;
#X obj 463 348 + 3020;
#X obj 463 328 random 30;
#X obj 362 690 fallingoverdrums;
#X obj 289 396 bng 15 250 50 0 empty empty empty 17 7 0 10 -262144
-1 -1;
#X msg 362 521 0;
#X obj 362 629 spigot 1;
#X msg 362 649 down;
#X msg 425 629 level 0 10;
#X obj 425 670 tgl 15 0 empty empty empty 17 7 0 10 -262144 -1 -1 1
1;
#X obj 510 559 vsl 15 128 0 1 0 0 empty empty empty 0 -9 0 10 -262144
-1 -1 0 1;
#X msg 290 637 up;
#X obj 592 277 switch~;
#X obj 592 256 tgl 15 0 empty empty empty 17 7 0 10 -262144 -1 -1 1
1;
#X obj 592 233 loadbang;
#X msg 402 648 level 2 10000;
#X text 132 366 bass tone;
#X obj -96 543 *~ 1;
#X obj -96 521 +~;
#X obj 471 711 *~ 0.1;
#X obj 362 711 *~ 0.1;
#X obj -60 520 *~ 0.1;
#X msg 460 397 decay 1.3 \, click 0.1;
#X text 97 168 latency (0= no smoothing \, 0.99= very smoothed \, 1=infinite)
;
#X text 97 133 threshold (0=no minimum energy threshold \, 100=high
threshold);
#X obj -168 129 noise~;
#X obj -168 248 *~;
#N canvas 507 22 510 684 wave1 0;
#X obj 112 346 *~;
#X obj 132 269 bng 15 250 50 0 empty empty empty 0 -6 0 8 -262144 -1
-1;
#X obj 176 447 sig~;
#X floatatom 262 465 5 0 0 0 - - -;
#X obj 114 498 vcf~ 1;
#X obj 112 587 *~ 0.71;
#X msg 246 390 400;
#X obj 143 143 t b b;
#X msg 194 269 2600;
#X text 180 481 long;
#X msg 158 269 1200;
#X obj 202 177 random 1000;
#X obj 113 11 inlet~;
#X obj 206 72 inlet;
#X obj 111 628 outlet~;
#X obj 328 219 loadbang;
#X obj 132 306 az_vad~;
#X obj 27 104 spigot;
#X obj 113 547 *~;
#X obj 158 526 tgl 15 0 empty empty empty 0 -6 0 8 -262144 -1 -1 1
1;
#X obj 24 341 del 3800;
#X obj 202 202 + 3800;
#X obj 143 226 del 3800;
#X obj 176 418 line;
#X obj 24 268 t b b b;
#X msg 24 386 400;
#X msg 176 390 800 1200;
#X connect 0 0 4 0;
#X connect 1 0 16 0;
#X connect 1 0 17 0;
#X connect 2 0 4 1;
#X connect 4 0 18 0;
#X connect 5 0 14 0;
#X connect 6 0 23 1;
#X connect 7 0 22 0;
#X connect 7 1 11 0;
#X connect 8 0 16 2;
#X connect 10 0 16 1;
#X connect 11 0 21 0;
#X connect 12 0 0 0;
#X connect 13 0 7 0;
#X connect 13 0 17 1;
#X connect 15 0 10 0;
#X connect 15 0 8 0;
#X connect 15 0 6 0;
#X connect 16 0 0 1;
#X connect 17 0 7 0;
#X connect 18 0 5 0;
#X connect 19 0 18 1;
#X connect 20 0 19 0;
#X connect 20 0 25 0;
#X connect 21 0 22 1;
#X connect 22 0 1 0;
#X connect 22 0 24 0;
#X connect 23 0 3 0;
#X connect 23 0 2 0;
#X connect 24 0 20 0;
#X connect 24 1 19 0;
#X connect 24 2 26 0;
#X connect 25 0 23 0;
#X connect 26 0 23 0;
#X restore -168 196 pd wave1;
#N canvas 0 22 503 683 wave2 0;
#X obj 148 308 *~;
#X obj 178 414 sig~;
#X obj 149 468 vcf~ 1;
#X obj 166 220 bng 15 250 50 0 empty empty empty 0 -6 0 8 -262144 -1
-1;
#X msg 266 366 295;
#X obj 221 81 t b b;
#X obj 221 158 del 3600;
#X obj 280 134 + 3600;
#X text 284 219 short burst;
#X text 224 254 replacement for ead;
#X obj 147 586 hip~ 500;
#X msg 228 218 2100;
#X obj 148 557 *~ 3.1;
#X msg 192 218 450;
#X obj 280 109 random 4000;
#X obj 149 8 inlet~;
#X obj 279 23 inlet;
#X obj 147 623 outlet~;
#X obj 415 159 loadbang;
#X obj 167 254 az_vad~;
#X obj 48 60 spigot;
#X obj 148 516 *~;
#X obj 193 495 tgl 15 0 empty empty empty 0 -6 0 8 -262144 -1 -1 1
1;
#X obj 48 307 del 2550;
#X obj 48 270 t b b b;
#X floatatom 260 444 5 0 0 0 - - -;
#X obj 178 383 line;
#X msg 48 344 295;
#X msg 178 355 1100 400;
#X connect 0 0 2 0;
#X connect 1 0 2 1;
#X connect 2 0 21 0;
#X connect 3 0 19 0;
#X connect 3 0 20 0;
#X connect 4 0 1 0;
#X connect 5 0 6 0;
#X connect 5 1 14 0;
#X connect 6 0 3 0;
#X connect 6 0 24 0;
#X connect 7 0 6 1;
#X connect 10 0 17 0;
#X connect 11 0 19 2;
#X connect 12 0 10 0;
#X connect 13 0 19 1;
#X connect 14 0 7 0;
#X connect 15 0 0 0;
#X connect 16 0 5 0;
#X connect 16 0 20 1;
#X connect 18 0 13 0;
#X connect 18 0 11 0;
#X connect 18 0 4 0;
#X connect 19 0 0 1;
#X connect 20 0 5 0;
#X connect 21 0 12 0;
#X connect 22 0 21 1;
#X connect 23 0 22 0;
#X connect 23 0 27 0;
#X connect 24 0 23 0;
#X connect 24 1 22 0;
#X connect 24 2 28 0;
#X connect 26 0 1 0;
#X connect 26 0 25 0;
#X connect 27 0 26 0;
#X connect 28 0 26 0;
#X restore -45 206 pd wave2;
#X obj -45 303 *~;
#X obj -46 328 panner1;
#X text -40 125 <- on/off;
#X obj -72 100 loadbang;
#X obj -168 290 panner1;
#X msg -27 281 0.724;
#X obj -82 233 loadbang;
#X msg 0 305 0.444;
#X msg -150 226 0.488;
#X msg -122 268 0.777;
#X obj -1087 575 loadbang;
#X msg -1086 595 0.4;
#X msg -1086 614 0.7;
#X msg -1086 635 0.1;
#X msg -1356 -43 \; bkgnlr 0.2 \; bkgpr 0.5 \; cn_alpha 1 \; cn_lvl
80 \;;
#X msg -998 586 1 5000;
#X obj -995 535 *~ 8;
#X obj -1291 810 *~ 8;
#X obj -1165 785 *~ 8;
#X obj -815 322 mod 4;
#X obj -253 35 / 3.5;
#X obj 90 821 *~ 0.3;
#X obj 164 820 *~ 0.3;
#X msg -72 124 1;
#X msg -39 149 0;
#X msg -1201 50 1;
#X msg -1162 50 0;
#X connect 0 0 1 0;
#X connect 1 0 2 0;
#X connect 2 0 5 0;
#X connect 2 0 6 0;
#X connect 3 0 4 0;
#X connect 5 0 3 0;
#X connect 6 0 3 1;
#X connect 8 0 11 0;
#X connect 9 0 10 0;
#X connect 10 0 11 0;
#X connect 11 0 12 0;
#X connect 15 0 32 0;
#X connect 15 0 35 0;
#X connect 17 0 253 0;
#X connect 18 0 148 0;
#X connect 19 0 146 0;
#X connect 20 0 19 0;
#X connect 21 0 18 0;
#X connect 22 0 23 0;
#X connect 23 0 147 0;
#X connect 24 0 257 0;
#X connect 25 0 141 0;
#X connect 28 0 79 0;
#X connect 28 0 150 0;
#X connect 29 0 28 0;
#X connect 30 0 22 1;
#X connect 30 0 20 1;
#X connect 30 0 37 0;
#X connect 30 0 39 0;
#X connect 30 0 40 0;
#X connect 30 0 103 0;
#X connect 30 0 104 0;
#X connect 30 0 153 0;
#X connect 30 0 154 0;
#X connect 30 0 155 0;
#X connect 30 0 44 0;
#X connect 31 0 32 1;
#X connect 32 0 20 0;
#X connect 32 0 22 0;
#X connect 33 0 21 0;
#X connect 34 0 35 1;
#X connect 35 0 33 0;
#X connect 36 0 33 1;
#X connect 36 0 22 1;
#X connect 36 0 20 1;
#X connect 37 0 36 0;
#X connect 38 0 264 0;
#X connect 39 0 31 0;
#X connect 40 0 34 0;
#X connect 41 0 119 0;
#X connect 42 0 41 0;
#X connect 43 0 254 0;
#X connect 44 0 255 0;
#X connect 45 0 44 0;
#X connect 46 0 48 0;
#X connect 48 0 45 0;
#X connect 49 0 50 0;
#X connect 50 0 67 0;
#X connect 51 0 52 0;
#X connect 52 0 49 0;
#X connect 53 0 112 0;
#X connect 53 0 122 0;
#X connect 53 0 128 0;
#X connect 53 0 130 0;
#X connect 53 0 142 0;
#X connect 53 0 181 0;
#X connect 53 0 182 0;
#X connect 53 0 258 0;
#X connect 54 0 70 0;
#X connect 55 0 56 0;
#X connect 56 0 120 0;
#X connect 57 0 41 1;
#X connect 58 0 42 0;
#X connect 59 0 41 2;
#X connect 62 0 19 1;
#X connect 62 0 23 1;
#X connect 62 0 18 1;
#X connect 63 0 42 0;
#X connect 64 0 63 0;
#X connect 65 0 66 0;
#X connect 65 0 53 0;
#X connect 66 0 65 1;
#X connect 67 0 69 0;
#X connect 67 1 68 0;
#X connect 68 0 74 0;
#X connect 68 1 71 0;
#X connect 69 0 72 0;
#X connect 69 1 71 0;
#X connect 70 0 71 1;
#X connect 71 0 74 1;
#X connect 71 0 72 1;
#X connect 72 0 73 0;
#X connect 73 0 65 0;
#X connect 73 1 76 0;
#X connect 74 0 75 0;
#X connect 75 0 65 0;
#X connect 75 1 76 0;
#X connect 76 0 71 1;
#X connect 77 0 78 0;
#X connect 78 0 80 0;
#X connect 78 0 259 0;
#X connect 79 0 77 0;
#X connect 80 0 100 0;
#X connect 80 1 99 0;
#X connect 81 0 83 0;
#X connect 82 0 81 0;
#X connect 83 0 84 0;
#X connect 83 0 85 0;
#X connect 84 0 83 1;
#X connect 85 0 102 0;
#X connect 85 0 195 0;
#X connect 86 0 81 0;
#X connect 86 0 83 0;
#X connect 87 0 90 0;
#X connect 88 0 87 0;
#X connect 88 1 89 0;
#X connect 89 0 87 1;
#X connect 89 0 96 1;
#X connect 90 0 98 0;
#X connect 90 1 91 0;
#X connect 91 0 89 1;
#X connect 92 0 93 0;
#X connect 93 0 89 1;
#X connect 94 0 95 0;
#X connect 94 1 88 0;
#X connect 95 0 96 0;
#X connect 95 1 89 0;
#X connect 96 0 97 0;
#X connect 97 0 98 0;
#X connect 97 1 91 0;
#X connect 98 0 82 0;
#X connect 99 0 92 0;
#X connect 99 0 86 0;
#X connect 100 0 94 0;
#X connect 102 0 99 0;
#X connect 102 0 101 0;
#X connect 103 0 62 0;
#X connect 104 0 57 0;
#X connect 105 0 107 0;
#X connect 106 0 115 0;
#X connect 106 0 138 0;
#X connect 107 0 108 0;
#X connect 107 0 109 0;
#X connect 108 0 107 1;
#X connect 109 0 114 0;
#X connect 110 0 41 1;
#X connect 111 0 65 0;
#X connect 112 0 110 0;
#X connect 112 0 111 0;
#X connect 114 0 116 0;
#X connect 114 0 139 0;
#X connect 114 0 115 0;
#X connect 115 0 107 0;
#X connect 116 0 42 0;
#X connect 117 0 42 0;
#X connect 118 0 117 0;
#X connect 119 0 140 0;
#X connect 120 0 54 0;
#X connect 121 0 41 1;
#X connect 122 0 121 0;
#X connect 123 0 125 0;
#X connect 124 0 123 0;
#X connect 125 0 126 0;
#X connect 125 0 127 0;
#X connect 126 0 125 1;
#X connect 127 0 133 0;
#X connect 128 0 129 0;
#X connect 129 0 124 0;
#X connect 130 0 131 0;
#X connect 130 0 134 0;
#X connect 131 0 124 0;
#X connect 132 0 135 0;
#X connect 133 0 132 0;
#X connect 134 0 136 0;
#X connect 135 0 136 0;
#X connect 139 0 137 0;
#X connect 140 0 16 1;
#X connect 140 0 16 0;
#X connect 141 0 256 0;
#X connect 142 0 58 0;
#X connect 144 0 178 0;
#X connect 145 0 177 0;
#X connect 146 0 25 0;
#X connect 146 1 24 0;
#X connect 147 0 25 0;
#X connect 147 1 24 0;
#X connect 148 0 25 0;
#X connect 148 1 24 0;
#X connect 149 0 30 0;
#X connect 150 0 149 0;
#X connect 151 0 152 0;
#X connect 153 0 105 0;
#X connect 153 1 106 0;
#X connect 154 0 55 0;
#X connect 155 0 51 0;
#X connect 156 0 158 0;
#X connect 156 0 164 0;
#X connect 156 0 168 0;
#X connect 156 0 172 0;
#X connect 156 0 176 0;
#X connect 157 0 159 0;
#X connect 158 0 157 0;
#X connect 159 0 160 0;
#X connect 160 0 140 1;
#X connect 161 0 162 0;
#X connect 162 0 163 0;
#X connect 163 0 141 1;
#X connect 164 0 161 0;
#X connect 165 0 166 0;
#X connect 166 0 167 0;
#X connect 167 0 25 1;
#X connect 167 0 24 1;
#X connect 167 0 145 1;
#X connect 167 0 144 1;
#X connect 168 0 165 0;
#X connect 169 0 170 0;
#X connect 170 0 171 0;
#X connect 171 0 39 1;
#X connect 172 0 169 0;
#X connect 173 0 174 0;
#X connect 174 0 175 0;
#X connect 175 0 40 1;
#X connect 176 0 173 0;
#X connect 177 0 231 0;
#X connect 177 0 228 1;
#X connect 178 0 228 0;
#X connect 178 0 231 0;
#X connect 179 0 180 0;
#X connect 180 0 59 0;
#X connect 181 0 64 0;
#X connect 182 0 112 0;
#X connect 183 0 260 0;
#X connect 183 1 261 0;
#X connect 185 0 188 0;
#X connect 186 0 197 0;
#X connect 187 0 188 1;
#X connect 188 0 208 0;
#X connect 189 0 194 0;
#X connect 190 0 186 0;
#X connect 190 0 192 0;
#X connect 191 0 188 1;
#X connect 192 0 185 0;
#X connect 193 0 196 0;
#X connect 194 0 190 0;
#X connect 195 0 202 0;
#X connect 195 0 221 0;
#X connect 196 0 184 0;
#X connect 196 0 200 0;
#X connect 196 0 195 0;
#X connect 196 0 201 0;
#X connect 196 0 214 0;
#X connect 196 0 216 0;
#X connect 197 0 191 0;
#X connect 198 0 207 0;
#X connect 199 0 198 0;
#X connect 200 0 187 0;
#X connect 201 0 199 0;
#X connect 201 0 212 0;
#X connect 203 0 210 0;
#X connect 204 0 232 0;
#X connect 204 0 193 0;
#X connect 205 0 207 1;
#X connect 206 0 209 0;
#X connect 207 0 183 1;
#X connect 207 0 183 0;
#X connect 208 0 207 0;
#X connect 209 0 205 0;
#X connect 210 0 202 1;
#X connect 210 0 202 0;
#X connect 211 0 201 1;
#X connect 212 0 211 0;
#X connect 213 0 230 0;
#X connect 213 1 229 0;
#X connect 215 0 205 0;
#X connect 216 0 217 0;
#X connect 217 0 213 0;
#X connect 218 0 213 0;
#X connect 219 0 213 1;
#X connect 220 0 229 1;
#X connect 220 0 230 1;
#X connect 221 0 213 0;
#X connect 223 0 222 0;
#X connect 224 0 223 0;
#X connect 224 0 225 0;
#X connect 224 0 219 0;
#X connect 225 0 213 0;
#X connect 227 0 213 2;
#X connect 228 0 227 0;
#X connect 229 0 183 1;
#X connect 230 0 183 0;
#X connect 231 0 183 0;
#X connect 231 0 183 1;
#X connect 232 0 198 0;
#X connect 235 0 237 0;
#X connect 235 0 238 0;
#X connect 236 0 243 0;
#X connect 237 0 236 0;
#X connect 238 0 239 0;
#X connect 239 0 240 0;
#X connect 240 0 145 0;
#X connect 240 0 143 0;
#X connect 240 1 144 0;
#X connect 240 1 143 1;
#X connect 242 0 262 0;
#X connect 243 0 145 0;
#X connect 243 0 143 0;
#X connect 243 1 144 0;
#X connect 243 1 143 1;
#X connect 244 0 239 1;
#X connect 245 0 244 0;
#X connect 245 0 246 0;
#X connect 245 0 247 0;
#X connect 245 0 248 0;
#X connect 246 0 240 1;
#X connect 247 0 236 1;
#X connect 248 0 243 1;
#X connect 249 0 250 0;
#X connect 249 0 251 0;
#X connect 249 0 252 0;
#X connect 250 0 147 1;
#X connect 251 0 146 1;
#X connect 252 0 148 1;
#X connect 254 0 42 0;
#X connect 255 0 119 0;
#X connect 256 0 16 0;
#X connect 257 0 16 1;
#X connect 258 0 179 0;
#X connect 260 0 143 0;
#X connect 261 0 143 1;
#X connect 262 0 238 1;
#X connect 262 0 237 1;
#X connect 263 0 237 1;
#X connect 263 0 238 1;
#X connect 264 0 20 1;
#X connect 264 0 22 1;
#X connect 264 0 21 1;
#X connect 265 0 20 1;
#X connect 265 0 22 1;
#X connect 265 0 21 1;
